<svg width="136" height="93" viewBox="0 0 136 93" fill="none" xmlns="http://www.w3.org/2000/svg">
<path d="M38.939 37.1369C38.939 47.078 46.9978 55.1369 56.939 55.1369L74.6239 55.1369C77.3853 55.1369 79.6239 52.8983 79.6239 50.1369L79.6239 35.417C79.6239 29.8942 75.1467 25.417 69.6239 25.417L43.939 25.417C41.1775 25.417 38.939 27.6556 38.939 30.417L38.939 37.1369Z" fill="#FFF1DA"/>
<path d="M78.4716 52.6753C77.3663 52.8598 76.2897 53.2016 75.3088 53.6792C72.7531 54.893 71.2663 56.6257 71.988 57.5489C72.7097 58.4722 75.3664 58.236 77.9221 57.0222C78.9163 56.5615 79.7994 55.9727 80.5172 55.2922C80.8504 54.9634 80.9101 54.5537 80.6699 54.2474L79.7324 53.0481C79.4938 52.7409 78.999 52.5948 78.4716 52.6753Z" fill="#D5D6DB"/>
<path d="M72.054 36.3032C71.2525 36.437 70.4718 36.685 69.7605 37.0314C67.9078 37.9113 66.829 39.1677 67.3519 39.8365C67.8748 40.5054 69.802 40.334 71.6545 39.4542C72.3753 39.12 73.0156 38.6928 73.5362 38.1993C73.7775 37.961 73.8207 37.6642 73.6466 37.4421L72.9677 36.5737C72.795 36.351 72.4365 36.2449 72.054 36.3032Z" fill="#D5D6DB"/>
<path d="M61.6271 36.9889C61.4487 36.9741 61.2585 37.0095 61.0935 37.0881L56.7417 39.1552C56.3777 39.3276 56.232 39.6596 56.4166 39.8968C56.4589 39.9512 56.5167 39.9976 56.5868 40.0334L67.3127 45.5437L81.8237 38.6507L61.6271 36.9889Z" fill="#029BC5"/>
<path d="M107.501 36.2096L68.0105 54.7403L44.6471 61.6702L32.732 63.4356L31.4211 61.7754L97.2453 31.4814C99.207 30.5747 101.392 30.0182 103.58 29.8683C104.538 29.8065 105.485 29.8302 106.397 29.9387C107.206 30.0301 107.973 30.2064 108.676 30.4624C109.46 30.7525 110.953 30.786 111.436 31.3639C111.438 31.3629 112.579 34.0161 107.501 36.2096V36.2096Z" fill="#E1E6E9"/>
<path d="M68.534 52.2884L51.4502 72.5889C51.2368 72.8741 51.3635 73.1934 51.7328 73.3021C51.9595 73.3689 52.2369 73.3425 52.4699 73.2321L56.8183 71.1759C57.6547 70.7802 58.3953 70.2777 58.9943 69.6993L92.1251 40.6654L68.534 52.2884Z" fill="#029BC5"/>
<path d="M25.4246 51.6106C25.1396 51.538 24.8005 51.5757 24.5142 51.7116L20.9197 53.418C20.4299 53.6503 20.2347 54.097 20.4836 54.4158C20.531 54.4764 20.5926 54.5298 20.6665 54.5737L30.7374 60.5858L41.3261 55.6559L25.4246 51.6106Z" fill="#029BC5"/>
<path d="M34.113 61.6696L28.6926 67.3283C28.6131 67.4096 28.6318 67.5117 28.7343 67.5562C28.8082 67.5882 28.9091 67.5824 28.9911 67.5415L32.3503 65.9548C32.3764 65.9425 32.4 65.927 32.4195 65.9094L40.3397 58.7313L34.113 61.6696Z" fill="#029BC5"/>
<path d="M105.749 30.1827C104.809 30.0702 103.835 30.0462 102.848 30.1109C101.887 31.1123 101.273 32.2373 101.067 33.3735C101.052 33.6018 101.298 33.7661 101.618 33.7405C101.718 33.7324 101.816 33.7064 101.905 33.6647L108.096 30.7265C107.372 30.4605 106.582 30.2774 105.749 30.1827Z" fill="#029BC5"/>
<path d="M92.2582 35.5857L96.2998 33.683L100.064 38.4558L96.0228 40.3585L92.2582 35.5857Z" fill="#D5D6DB"/>
<path d="M89.7149 37.4734C89.2279 37.7033 89.0332 38.1454 89.2804 38.4606L89.681 38.9713C89.9445 39.2785 90.5461 39.3325 91.0248 39.0919C91.4803 38.8627 91.6637 38.4462 91.4442 38.1387L91.0436 37.628C90.7966 37.3131 90.2019 37.2438 89.7149 37.4734V37.4734Z" fill="#3A556A"/>
<path d="M86.0823 39.155C85.5953 39.385 85.4006 39.827 85.6479 40.1422L86.0485 40.6529C86.312 40.9601 86.9135 41.0141 87.3922 40.7735C87.8477 40.5444 88.0312 40.1279 87.8116 39.8203L87.411 39.3097C87.1638 38.9948 86.5691 38.9255 86.0823 39.155V39.155Z" fill="#3A556A"/>
<path d="M82.4485 40.8371C81.962 41.0673 81.768 41.5088 82.015 41.8238L82.4156 42.3345C82.6791 42.6416 83.2807 42.6957 83.7594 42.455C84.2149 42.2259 84.3984 41.8094 84.1788 41.5019L83.7782 40.9913C83.531 40.676 82.9357 40.607 82.4485 40.8371V40.8371Z" fill="#3A556A"/>
<path d="M78.8158 42.5186C78.3293 42.7489 78.1353 43.1904 78.3824 43.5053L78.7829 44.016C79.0465 44.3232 79.648 44.3772 80.1267 44.1366C80.5822 43.9075 80.7657 43.491 80.5461 43.1834L80.1455 42.6728C79.8981 42.3576 79.3028 42.2886 78.8158 42.5186V42.5186Z" fill="#3A556A"/>
<path d="M75.1835 44.2002C74.6967 44.4306 74.5026 44.8723 74.7498 45.1874L75.1506 45.6983C75.3977 46.0132 75.9927 46.0822 76.4796 45.8523C76.9665 45.6225 77.1609 45.1808 76.9138 44.8659L76.513 44.355C76.2665 44.0397 75.6717 43.9703 75.1845 44.1998C75.1841 44.2 75.1839 44.2 75.1835 44.2002Z" fill="#3A556A"/>
<path d="M71.5508 45.8819C71.064 46.1122 70.8699 46.5539 71.1171 46.869L71.5179 47.3799C71.765 47.6949 72.3601 47.7639 72.847 47.534C73.3338 47.3041 73.5282 46.8625 73.2811 46.5475L72.8803 46.0366C72.6338 45.7214 72.039 45.6519 71.5518 45.8814C71.5514 45.8816 71.551 45.8818 71.5508 45.8819Z" fill="#3A556A"/>
<path d="M67.918 47.5635C67.4312 47.7938 67.2371 48.2355 67.4843 48.5506L67.8851 49.0615C68.1328 49.3761 68.7281 49.4444 69.2145 49.2142C69.7 48.9845 69.894 48.5437 69.6481 48.2292L69.2473 47.7183C69.0003 47.4031 68.4053 47.3338 67.918 47.5635Z" fill="#3A556A"/>
<path d="M64.2851 49.2451C63.7984 49.4755 63.6043 49.9172 63.8515 50.2323L64.2523 50.7432C64.5 51.0578 65.0953 51.1261 65.5817 50.8959C66.0672 50.6661 66.2612 50.2254 66.0153 49.9108L65.6144 49.3999C65.3675 49.0847 64.7724 49.0154 64.2851 49.2451Z" fill="#3A556A"/>
<path d="M60.6526 50.9266C60.1658 51.157 59.9717 51.5987 60.2189 51.9138L60.6197 52.4246C60.8674 52.7393 61.4627 52.8076 61.9491 52.5774C62.4347 52.3476 62.6286 51.9069 62.3827 51.5923L61.9819 51.0814C61.7347 50.7664 61.1397 50.697 60.6526 50.9266Z" fill="#3A556A"/>
<path d="M57.0188 52.6087C56.5319 52.8386 56.3375 53.2802 56.5846 53.5952L56.5851 53.5958L56.9859 54.1067C57.2337 54.4214 57.829 54.4897 58.3153 54.2595C58.8009 54.0297 58.9949 53.589 58.7489 53.2744L58.3481 52.7635C58.1011 52.4483 57.5061 52.379 57.0188 52.6087Z" fill="#3A556A"/>
<path d="M53.3871 54.2897C52.9002 54.5196 52.7058 54.9612 52.9529 55.2762L52.9534 55.2769L53.3542 55.7877C53.602 56.1024 54.1973 56.1707 54.6837 55.9405C55.1692 55.7107 55.3632 55.27 55.1172 54.9554L54.7164 54.4445C54.4692 54.1295 53.8742 54.0601 53.3871 54.2897Z" fill="#3A556A"/>
</svg>
