<svg width="127" height="95" viewBox="0 0 127 95" fill="none" xmlns="http://www.w3.org/2000/svg">
<path d="M36.3723 38.3226C36.3723 48.2638 44.4312 56.3226 54.3723 56.3226L69.3606 56.3226C72.122 56.3226 74.3606 54.0841 74.3606 51.3226L74.3606 35.9636C74.3606 30.4408 69.8834 25.9636 64.3606 25.9636L41.3723 25.9636C38.6109 25.9636 36.3723 28.2022 36.3723 30.9636L36.3723 38.3226Z" fill="#FFF1DA"/>
<path d="M73.2846 53.8081C72.2526 53.9966 71.2474 54.3458 70.3315 54.8336C67.9452 56.0736 66.5569 57.8436 67.2308 58.7866C67.9047 59.7297 70.3853 59.4885 72.7716 58.2486C73.6999 57.7779 74.5245 57.1765 75.1947 56.4813C75.5058 56.1454 75.5616 55.727 75.3373 55.4141L74.4619 54.189C74.2392 53.8752 73.7772 53.7259 73.2846 53.8081Z" fill="#D5D6DB"/>
<path d="M67.2924 37.0839C66.5441 37.2207 65.8152 37.474 65.1509 37.8278C63.4211 38.7266 62.4138 40.01 62.902 40.6933C63.3903 41.3765 65.1897 41.2015 66.9194 40.3027C67.5925 39.9613 68.1904 39.5249 68.6765 39.0208C68.9017 38.7774 68.9421 38.4742 68.7795 38.2474L68.1456 37.3603C67.9844 37.1328 67.6496 37.0244 67.2924 37.0839Z" fill="#D5D6DB"/>
<path d="M57.5567 37.7845C57.3901 37.7693 57.2125 37.8055 57.0584 37.8857L52.9951 39.9974C52.6552 40.1735 52.5192 40.5126 52.6916 40.7549C52.731 40.8105 52.785 40.8579 52.8505 40.8945L62.8654 46.5232L76.4147 39.482L57.5567 37.7845Z" fill="#029BC5"/>
<path d="M100.39 36.9884L63.517 55.9176L41.7021 62.9964L30.5767 64.7998L29.3528 63.1039L90.8141 32.1584C92.6457 31.2323 94.6862 30.6638 96.7291 30.5107C97.6237 30.4475 98.5072 30.4718 99.359 30.5826C100.114 30.676 100.831 30.8561 101.487 31.1176C102.219 31.4139 103.613 31.4481 104.064 32.0384C104.066 32.0375 105.131 34.7477 100.39 36.9884V36.9884Z" fill="#E1E6E9"/>
<path d="M64.0057 53.413L48.0543 74.15C47.855 74.4413 47.9733 74.7675 48.3182 74.8786C48.5298 74.9467 48.7888 74.9198 49.0064 74.8071L53.0666 72.7066C53.8475 72.3024 54.539 71.7891 55.0983 71.1983L86.0332 41.54L64.0057 53.413Z" fill="#029BC5"/>
<path d="M23.7536 52.7206C23.4875 52.6464 23.1708 52.6849 22.9035 52.8237L19.5473 54.5668C19.09 54.8042 18.9077 55.2604 19.1401 55.5861C19.1844 55.648 19.2419 55.7025 19.3108 55.7474L28.7143 61.8888L38.6011 56.8529L23.7536 52.7206Z" fill="#029BC5"/>
<path d="M31.8662 62.9959L26.805 68.7762C26.7308 68.8593 26.7483 68.9636 26.844 69.009C26.913 69.0417 27.0072 69.0359 27.0838 68.994L30.2203 67.3732C30.2446 67.3606 30.2667 67.3449 30.2849 67.3268L37.6802 59.9944L31.8662 62.9959Z" fill="#029BC5"/>
<path d="M98.7537 30.8319C97.8766 30.717 96.9667 30.6924 96.0452 30.7585C95.148 31.7814 94.5746 32.9306 94.382 34.0913C94.368 34.3244 94.5985 34.4923 94.897 34.4661C94.9898 34.4579 95.082 34.4313 95.1651 34.3887L100.945 31.3874C100.269 31.1156 99.5316 30.9286 98.7537 30.8319Z" fill="#029BC5"/>
<path d="M86.1575 36.351L89.9312 34.4074L93.4464 39.2829L89.6726 41.2264L86.1575 36.351Z" fill="#D5D6DB"/>
<path d="M83.7827 38.2793C83.328 38.5142 83.1462 38.9657 83.3771 39.2877L83.7511 39.8094C83.9972 40.1232 84.5589 40.1784 85.0058 39.9326C85.4312 39.6985 85.6024 39.2731 85.3975 38.9589L85.0234 38.4373C84.7927 38.1155 84.2375 38.0447 83.7827 38.2793V38.2793Z" fill="#3A556A"/>
<path d="M80.3909 39.9971C79.9362 40.232 79.7544 40.6836 79.9853 41.0056L80.3593 41.5272C80.6053 41.841 81.167 41.8962 81.614 41.6504C82.0393 41.4164 82.2106 40.9909 82.0056 40.6768L81.6316 40.1551C81.4007 39.8335 80.8455 39.7627 80.3909 39.9971V39.9971Z" fill="#3A556A"/>
<path d="M76.998 41.7153C76.5437 41.9506 76.3626 42.4016 76.5933 42.7233L76.9673 43.2449C77.2134 43.5587 77.7751 43.6139 78.222 43.3681C78.6473 43.134 78.8186 42.7086 78.6136 42.3945L78.2396 41.8728C78.0087 41.5508 77.4529 41.4803 76.998 41.7153V41.7153Z" fill="#3A556A"/>
<path d="M73.606 43.433C73.1517 43.6683 72.9706 44.1193 73.2013 44.441L73.5754 44.9627C73.8214 45.2765 74.3831 45.3316 74.83 45.0859C75.2554 44.8518 75.4267 44.4263 75.2217 44.1122L74.8476 43.5905C74.6166 43.2686 74.0607 43.1981 73.606 43.433V43.433Z" fill="#3A556A"/>
<path d="M70.2145 45.1508C69.76 45.3861 69.5788 45.8373 69.8096 46.1592L70.1839 46.6811C70.4146 47.0028 70.9702 47.0733 71.4248 46.8385C71.8794 46.6036 72.0609 46.1525 71.8302 45.8308L71.4559 45.3089C71.2258 44.9869 70.6704 44.9159 70.2155 45.1503C70.2151 45.1505 70.2149 45.1506 70.2145 45.1508Z" fill="#3A556A"/>
<path d="M66.8226 46.8687C66.368 47.104 66.1868 47.5552 66.4176 47.877L66.7919 48.3989C67.0226 48.7206 67.5782 48.7911 68.0328 48.5563C68.4874 48.3215 68.6689 47.8703 68.4382 47.5486L68.064 47.0267C67.8338 46.7047 67.2784 46.6338 66.8235 46.8682C66.8231 46.8684 66.8227 46.8686 66.8226 46.8687Z" fill="#3A556A"/>
<path d="M63.4306 48.5864C62.9761 48.8218 62.7948 49.2729 63.0257 49.5948L63.3999 50.1167C63.6312 50.4381 64.187 50.5078 64.6412 50.2727C65.0945 50.038 65.2757 49.5878 65.046 49.2665L64.6718 48.7446C64.4411 48.4226 63.8856 48.3518 63.4306 48.5864Z" fill="#3A556A"/>
<path d="M60.0385 50.3042C59.584 50.5395 59.4028 50.9907 59.6336 51.3126L60.0078 51.8345C60.2391 52.1559 60.795 52.2257 61.2491 51.9905C61.7024 51.7558 61.8836 51.3056 61.6539 50.9842L61.2797 50.4624C61.0491 50.1404 60.4935 50.0696 60.0385 50.3042Z" fill="#3A556A"/>
<path d="M56.6466 52.0219C56.1921 52.2572 56.0109 52.7084 56.2417 53.0302L56.616 53.5521C56.8473 53.8735 57.4031 53.9433 57.8572 53.7081C58.3106 53.4734 58.4917 53.0232 58.2621 52.7019L57.8878 52.18C57.657 51.8582 57.1014 51.7873 56.6466 52.0219Z" fill="#3A556A"/>
<path d="M53.2537 53.7401C52.7991 53.9749 52.6176 54.4261 52.8483 54.7478L52.8488 54.7485L53.223 55.2704C53.4543 55.5918 54.0102 55.6616 54.4643 55.4264C54.9177 55.1917 55.0988 54.7415 54.8691 54.4202L54.4949 53.8983C54.2643 53.5763 53.7087 53.5055 53.2537 53.7401Z" fill="#3A556A"/>
<path d="M49.8627 55.4573C49.4081 55.6921 49.2266 56.1432 49.4573 56.465L49.4578 56.4656L49.832 56.9875C50.0633 57.3089 50.6192 57.3787 51.0733 57.1436C51.5267 56.9089 51.7078 56.4586 51.4782 56.1373L51.1039 55.6154C50.8731 55.2936 50.3175 55.2228 49.8627 55.4573Z" fill="#3A556A"/>
</svg>
