<svg width="136" height="134" viewBox="0 0 136 134" fill="none" xmlns="http://www.w3.org/2000/svg">
<path d="M38.939 61.4829C38.939 71.424 46.9978 79.4829 56.939 79.4829L74.6239 79.4829C77.3853 79.4829 79.6239 77.2443 79.6239 74.4829L79.6239 46.6908C79.6239 41.168 75.1467 36.6908 69.6239 36.6908L43.939 36.6908C41.1775 36.6908 38.939 38.9294 38.939 41.6908L38.939 61.4829Z" fill="#FFF1DA"/>
<path d="M78.4716 75.9385C77.3663 76.2042 76.2897 76.6963 75.3088 77.384C72.7531 79.1317 71.2663 81.6265 71.988 82.9558C72.7097 84.2851 75.3664 83.9452 77.9221 82.1974C78.9163 81.5341 79.7994 80.6862 80.5172 79.7064C80.8504 79.233 80.9101 78.6431 80.6699 78.2022L79.7324 76.4753C79.4938 76.0329 78.999 75.8226 78.4716 75.9385Z" fill="#D5D6DB"/>
<path d="M72.054 52.3652C71.2525 52.558 70.4718 52.915 69.7605 53.4137C67.9078 54.6807 66.829 56.4896 67.3519 57.4527C67.8748 58.4158 69.802 58.169 71.6545 56.9022C72.3753 56.4209 73.0156 55.8059 73.5362 55.0953C73.7775 54.7522 73.8207 54.3248 73.6466 54.0051L72.9677 52.7547C72.795 52.4341 72.4365 52.2812 72.054 52.3652Z" fill="#D5D6DB"/>
<path d="M61.6271 53.3524C61.4487 53.3311 61.2585 53.3821 61.0935 53.4952L56.7417 56.4716C56.3777 56.7198 56.232 57.1978 56.4166 57.5394C56.4589 57.6177 56.5167 57.6846 56.5868 57.7361L67.3127 65.67L81.8238 55.7451L61.6271 53.3524Z" fill="#029BC5"/>
<path d="M107.501 52.2305L68.0105 78.9119L44.6471 88.8899L32.732 91.4318L31.4211 89.0414L97.2453 45.4226C99.207 44.1171 101.392 43.3158 103.58 43.1C104.538 43.011 105.485 43.0452 106.397 43.2014C107.206 43.333 107.973 43.5869 108.676 43.9555C109.46 44.3731 110.953 44.4213 111.436 45.2534C111.438 45.2521 112.579 49.0723 107.501 52.2305V52.2305Z" fill="#E1E6E9"/>
<path d="M68.534 75.3815L51.4502 104.611C51.2368 105.022 51.3635 105.481 51.7328 105.638C51.9595 105.734 52.2369 105.696 52.4699 105.537L56.8183 102.577C57.6547 102.007 58.3953 101.283 58.9943 100.451L92.1251 58.6461L68.534 75.3815Z" fill="#029BC5"/>
<path d="M25.4246 74.4056C25.1396 74.3011 24.8005 74.3553 24.5142 74.551L20.9197 77.0079C20.4299 77.3425 20.2347 77.9856 20.4836 78.4447C20.531 78.5319 20.5926 78.6087 20.6665 78.672L30.7374 87.3285L41.3261 80.2302L25.4246 74.4056Z" fill="#029BC5"/>
<path d="M34.113 88.8891L28.6926 97.0366C28.6131 97.1537 28.6318 97.3007 28.7343 97.3647C28.8082 97.4109 28.9091 97.4026 28.9911 97.3436L32.3503 95.0591C32.3764 95.0413 32.4 95.0191 32.4195 94.9937L40.3397 84.6583L34.113 88.8891Z" fill="#029BC5"/>
<path d="M105.749 43.5527C104.809 43.3907 103.835 43.3562 102.848 43.4493C101.887 44.8912 101.273 46.5109 101.067 48.147C101.052 48.4756 101.298 48.7122 101.618 48.6753C101.718 48.6637 101.816 48.6263 101.905 48.5662L108.096 44.3357C107.372 43.9526 106.582 43.689 105.749 43.5527Z" fill="#029BC5"/>
<path d="M92.2582 51.3322L96.2998 48.5926L100.064 55.4647L96.0228 58.2042L92.2582 51.3322Z" fill="#D5D6DB"/>
<path d="M89.7149 54.05C89.2279 54.3812 89.0332 55.0176 89.2804 55.4715L89.681 56.2068C89.9445 56.6491 90.5461 56.7269 91.0248 56.3804C91.4803 56.0505 91.6637 55.4508 91.4442 55.008L91.0436 54.2727C90.7966 53.8192 90.2019 53.7195 89.7149 54.05V54.05Z" fill="#3A556A"/>
<path d="M86.0823 56.4713C85.5953 56.8024 85.4006 57.4389 85.6479 57.8928L86.0485 58.6281C86.312 59.0704 86.9135 59.1481 87.3922 58.8017C87.8477 58.4718 88.0312 57.8721 87.8116 57.4293L87.411 56.694C87.1638 56.2406 86.5691 56.1409 86.0823 56.4713V56.4713Z" fill="#3A556A"/>
<path d="M82.4485 58.8933C81.962 59.2248 81.768 59.8605 82.015 60.314L82.4156 61.0493C82.6791 61.4916 83.2807 61.5693 83.7594 61.2229C84.2149 60.893 84.3984 60.2933 84.1788 59.8506L83.7782 59.1153C83.531 58.6614 82.9357 58.562 82.4485 58.8933V58.8933Z" fill="#3A556A"/>
<path d="M78.8158 61.3144C78.3293 61.646 78.1353 62.2817 78.3824 62.7352L78.7829 63.4705C79.0465 63.9128 79.648 63.9906 80.1267 63.6441C80.5822 63.3142 80.7657 62.7145 80.5461 62.2717L80.1455 61.5364C79.8981 61.0827 79.3028 60.9833 78.8158 61.3144V61.3144Z" fill="#3A556A"/>
<path d="M75.1835 63.7358C74.6967 64.0675 74.5026 64.7035 74.7498 65.1571L75.1506 65.8928C75.3977 66.3462 75.9927 66.4456 76.4796 66.1146C76.9665 65.7836 77.1609 65.1477 76.9138 64.6942L76.513 63.9586C76.2665 63.5047 75.6717 63.4047 75.1845 63.7351C75.1841 63.7354 75.1839 63.7355 75.1835 63.7358Z" fill="#3A556A"/>
<path d="M71.5508 66.157C71.064 66.4887 70.8699 67.1247 71.1171 67.5783L71.5179 68.314C71.765 68.7674 72.3601 68.8668 72.847 68.5358C73.3338 68.2048 73.5282 67.5689 73.2811 67.1154L72.8803 66.3798C72.6338 65.9259 72.039 65.8259 71.5518 66.1563C71.5514 66.1566 71.551 66.1569 71.5508 66.157Z" fill="#3A556A"/>
<path d="M67.918 68.5783C67.4312 68.91 67.2371 69.5459 67.4843 69.9996L67.8851 70.7352C68.1328 71.1882 68.7281 71.2866 69.2145 70.9551C69.7 70.6243 69.894 69.9897 69.6481 69.5368L69.2473 68.8012C69.0003 68.3474 68.4053 68.2476 67.918 68.5783Z" fill="#3A556A"/>
<path d="M64.2851 70.9995C63.7984 71.3312 63.6043 71.9672 63.8515 72.4209L64.2523 73.1565C64.5 73.6096 65.0953 73.7079 65.5817 73.3765C66.0672 73.0456 66.2612 72.411 66.0153 71.9581L65.6144 71.2224C65.3675 70.7686 64.7724 70.6688 64.2851 70.9995Z" fill="#3A556A"/>
<path d="M60.6526 73.4208C60.1658 73.7524 59.9717 74.3884 60.2189 74.8421L60.6197 75.5777C60.8674 76.0307 61.4627 76.129 61.9491 75.7976C62.4347 75.4668 62.6286 74.8322 62.3827 74.3793L61.9819 73.6437C61.7347 73.19 61.1397 73.0902 60.6526 73.4208Z" fill="#3A556A"/>
<path d="M57.0188 75.8426C56.5319 76.1736 56.3375 76.8095 56.5846 77.263L56.5851 77.264L56.9859 77.9996C57.2337 78.4526 57.829 78.551 58.3153 78.2195C58.8009 77.8887 58.9949 77.2541 58.7489 76.8011L58.3481 76.0655C58.1011 75.6117 57.5061 75.5119 57.0188 75.8426Z" fill="#3A556A"/>
<path d="M53.3871 78.2632C52.9002 78.5941 52.7058 79.23 52.9529 79.6835L52.9534 79.6845L53.3542 80.4201C53.602 80.8731 54.1973 80.9714 54.6836 80.64C55.1692 80.3092 55.3632 79.6746 55.1172 79.2217L54.7164 78.4861C54.4692 78.0324 53.8742 77.9326 53.3871 78.2632Z" fill="#3A556A"/>
</svg>
